<svg width="48" height="48" viewBox="0 0 48 48" fill="none" xmlns="http://www.w3.org/2000/svg">
<path d="M39.25 24C39.25 32.4223 32.4223 39.25 24 39.25C15.5777 39.25 8.75 32.4223 8.75 24C8.75 15.5777 15.5777 8.75 24 8.75C32.4223 8.75 39.25 15.5777 39.25 24Z" stroke="#16171C" stroke-width="1.5"/>
<path d="M31.0504 18.2499H30.9004V18.3999V19.2797V19.4297H31.0504H32.2654L23.5779 28.1171L19.2905 23.8246L19.1845 23.7184L19.0783 23.8245L13.494 29.4088L13.3884 29.5144L13.4936 29.6205L14.1105 30.2427L14.2165 30.3497L14.323 30.2433L19.1843 25.3872L23.4718 29.6746L23.5778 29.7806L23.6839 29.6746L33.0998 20.2639V21.4737V21.6237H33.2498H34.1295H34.2795V21.4737V18.3999V18.2499H34.1295H31.0504Z" fill="#16171C" stroke="#16171C" stroke-width="0.3"/>
</svg>
