<svg width="48" height="48" viewBox="0 0 48 48" fill="none" xmlns="http://www.w3.org/2000/svg">
<path d="M35.875 10.5H33V9C33 8.44775 32.5523 8 32 8C31.4477 8 31 8.44775 31 9V10.5H17V9C17 8.44775 16.5523 8 16 8C15.4477 8 15 8.44775 15 9V10.5H12.125C9.85044 10.5 8 12.3504 8 14.625V35.875C8 38.1496 9.85044 40 12.125 40H35.875C38.1496 40 40 38.1496 40 35.875V14.625C40 12.3504 38.1496 10.5 35.875 10.5ZM12.125 12.5H15V13.5C15 14.0522 15.4477 14.5 16 14.5C16.5523 14.5 17 14.0522 17 13.5V12.5H31V13.5C31 14.0522 31.4477 14.5 32 14.5C32.5523 14.5 33 14.0522 33 13.5V12.5H35.875C37.0467 12.5 38 13.4532 38 14.625V17H10V14.625C10 13.4532 10.9532 12.5 12.125 12.5ZM35.875 38H12.125C10.9532 38 10 37.0467 10 35.875V19H38V35.875C38 37.0467 37.0467 38 35.875 38Z" fill="#16171C"/>
<path d="M28.509 25.6735L23.3412 30.8409C22.9586 31.2237 22.3378 31.2237 21.9548 30.8409L19.2871 28.1731C18.9043 27.7904 18.9043 27.1695 19.2871 26.7867C19.67 26.4038 20.2907 26.4038 20.6735 26.7866L22.6482 28.7613L27.1224 24.2871C27.5053 23.9042 28.1261 23.9045 28.5088 24.2871C28.8916 24.6699 28.8916 25.2905 28.509 25.6735Z" fill="#16171C"/>
</svg>
