<svg width="48" height="48" viewBox="0 0 48 48" fill="none" xmlns="http://www.w3.org/2000/svg">
<path d="M35.875 10.5H33V9C33 8.44775 32.5523 8 32 8C31.4477 8 31 8.44775 31 9V10.5H17V9C17 8.44775 16.5523 8 16 8C15.4477 8 15 8.44775 15 9V10.5H12.125C9.85044 10.5 8 12.3504 8 14.625V35.875C8 38.1496 9.85044 40 12.125 40H35.875C38.1496 40 40 38.1496 40 35.875V14.625C40 12.3504 38.1496 10.5 35.875 10.5ZM12.125 12.5H15V13.5C15 14.0522 15.4477 14.5 16 14.5C16.5523 14.5 17 14.0522 17 13.5V12.5H31V13.5C31 14.0522 31.4477 14.5 32 14.5C32.5523 14.5 33 14.0522 33 13.5V12.5H35.875C37.0467 12.5 38 13.4532 38 14.625V17H10V14.625C10 13.4532 10.9532 12.5 12.125 12.5ZM35.875 38H12.125C10.9532 38 10 37.0467 10 35.875V19H38V35.875C38 37.0467 37.0467 38 35.875 38Z" fill="#16171C"/>
</svg>
