<svg width="48" height="48" viewBox="0 0 48 48" fill="none" xmlns="http://www.w3.org/2000/svg">
<path d="M24.4046 33.0819H11.2914C9.39345 33.0819 8.01312 31.5556 8.01312 29.8597V14.7663C7.84058 12.9008 9.39345 11.3745 11.2914 11.3745H31.6514C33.5493 11.3745 34.9296 12.9008 34.9296 14.5967V22.5674" stroke="#16171C" stroke-width="1.3" stroke-miterlimit="10" stroke-linecap="round" stroke-linejoin="round"/>
<path d="M14.7424 13.7485V9" stroke="#16171C" stroke-width="1.3" stroke-miterlimit="10" stroke-linecap="round" stroke-linejoin="round"/>
<path d="M28.2014 13.7485V9" stroke="#16171C" stroke-width="1.3" stroke-miterlimit="10" stroke-linecap="round" stroke-linejoin="round"/>
<path d="M31.8238 38C36.3026 38 39.9333 34.4314 39.9333 30.0293C39.9333 25.6272 36.3026 22.0586 31.8238 22.0586C27.3451 22.0586 23.7144 25.6272 23.7144 30.0293C23.7144 34.4314 27.3451 38 31.8238 38Z" stroke="#16171C" stroke-width="1.3" stroke-miterlimit="10" stroke-linecap="round" stroke-linejoin="round"/>
<path d="M31.824 26.7739V30.0288L33.7219 31.7247" stroke="#16171C" stroke-width="1.1" stroke-miterlimit="10" stroke-linecap="round" stroke-linejoin="round"/>
</svg>
