<svg width="48" height="48" viewBox="0 0 48 48" fill="none" xmlns="http://www.w3.org/2000/svg">
<path d="M12.2868 20.4827L12.3865 20.4742C12.3722 20.3071 12.3623 20.1366 12.3623 19.9669C12.366 17.1241 14.7139 14.8196 17.6101 14.8232C18.2968 14.8241 18.9765 14.9576 19.6108 15.216C19.9005 15.3343 20.2356 15.2259 20.3971 14.9591L20.3972 14.9589C22.6187 11.2678 27.465 10.0446 31.2216 12.2292C33.6274 13.6282 35.1013 16.1719 35.0992 18.918V18.9181C35.0992 19.0898 35.0944 19.2551 35.0803 19.4203C35.0509 19.7577 35.299 20.0545 35.6371 20.0939C37.6301 20.3365 39.0429 22.1203 38.7967 24.0754C38.5722 25.8597 37.0315 27.2033 35.199 27.2076C35.0425 27.2078 34.8861 27.1988 34.7308 27.1805L34.7237 27.1797L34.7165 27.1798C34.5844 27.1833 34.4923 27.1864 34.431 27.1891C34.4005 27.1904 34.377 27.1917 34.3598 27.193C34.3465 27.1939 34.3277 27.1953 34.3135 27.1989L34.3135 27.1989C34.3128 27.1991 34.3028 27.2013 34.2905 27.2076H26.1119C25.7637 27.2076 25.4785 27.4855 25.4785 27.8319C25.4785 28.1784 25.7637 28.4563 26.1119 28.4563H34.6658H34.6661C34.7094 28.4561 34.7527 28.4511 34.7949 28.441C34.9274 28.4514 35.0627 28.4563 35.1992 28.4563C37.9042 28.4564 40.1 26.3004 40.1 23.6372C40.1001 21.4134 38.5538 19.4836 36.366 18.9566V18.9181C36.366 18.9181 36.366 18.9181 36.366 18.9181C36.3684 13.9382 32.264 9.90232 27.2023 9.9C24.1487 9.89856 21.296 11.3919 19.5924 13.8805C16.2045 12.8109 12.5612 14.6176 11.4305 17.9473L11.4305 17.9473C11.2094 18.5984 11.0963 19.2802 11.0955 19.9666V19.9668V20.0245C8.80714 20.6511 7.44088 22.9692 8.04144 25.2417C8.54136 27.1335 10.2766 28.4535 12.2622 28.4563H12.2623H21.8286C22.1768 28.4563 22.462 28.1784 22.462 27.8319C22.462 27.4855 22.1768 27.2076 21.8286 27.2076L12.2629 27.2076C12.2628 27.2076 12.2627 27.2076 12.2626 27.2076C10.5488 27.1974 9.17074 25.824 9.18086 24.1435C9.18996 22.6369 10.3195 21.3614 11.84 21.1465C12.1735 21.1022 12.4157 20.8074 12.3864 20.474L12.2868 20.4827ZM12.2868 20.4827C12.3113 20.7615 12.1087 21.0101 11.8265 21.0474L19.6485 15.1234C19.0023 14.8601 18.3098 14.7241 17.6103 14.7232C14.6605 14.7195 12.2661 17.0671 12.2623 19.9668C12.2623 20.1403 12.2724 20.3139 12.2868 20.4827ZM31.2719 12.1427C27.4687 9.93105 22.5616 11.1688 20.3115 14.9074L31.2719 12.1427ZM28.0763 31.5847L24.6309 34.9715V20.4911C24.6309 20.1447 24.3456 19.8668 23.9975 19.8668C23.6493 19.8668 23.364 20.1447 23.364 20.4911V34.9715L19.9187 31.5847L19.9187 31.5847L19.9174 31.5835C19.666 31.3447 19.266 31.3515 19.023 31.5987L19.0943 31.6688L19.023 31.5987C18.7851 31.8408 18.7851 32.2253 19.023 32.4675L19.0242 32.4687L23.5502 36.9178L23.5503 36.9178C23.7975 37.1607 24.1975 37.1607 24.4447 36.9178L24.4447 36.9178L28.9707 32.4687L28.9707 32.4687L28.972 32.4675C29.2159 32.2193 29.2088 31.8231 28.9564 31.5835C28.7111 31.3505 28.3228 31.3505 28.0775 31.5835L28.0775 31.5835L28.0763 31.5847Z" fill="#16171C" stroke="#16171C" stroke-width="0.2"/>
</svg>
