<svg width="48" height="48" viewBox="0 0 48 48" fill="none" xmlns="http://www.w3.org/2000/svg">
<path d="M24 28.3636C26.41 28.3636 28.3636 26.41 28.3636 24C28.3636 21.59 26.41 19.6364 24 19.6364C21.59 19.6364 19.6364 21.59 19.6364 24C19.6364 26.41 21.59 28.3636 24 28.3636Z" stroke="#16171C" stroke-width="1.5" stroke-linecap="round" stroke-linejoin="round"/>
<path d="M34.7636 28.3636C34.57 28.8024 34.5123 29.289 34.5978 29.7609C34.6834 30.2327 34.9083 30.6681 35.2436 31.0109L35.3309 31.0982C35.6014 31.3684 35.816 31.6892 35.9624 32.0424C36.1088 32.3955 36.1841 32.7741 36.1841 33.1564C36.1841 33.5387 36.1088 33.9172 35.9624 34.2704C35.816 34.6235 35.6014 34.9444 35.3309 35.2145C35.0607 35.485 34.7399 35.6996 34.3867 35.846C34.0336 35.9924 33.655 36.0677 33.2727 36.0677C32.8904 36.0677 32.5119 35.9924 32.1587 35.846C31.8056 35.6996 31.4847 35.485 31.2145 35.2145L31.1273 35.1273C30.7845 34.7919 30.3491 34.567 29.8772 34.4814C29.4054 34.3959 28.9187 34.4537 28.48 34.6473C28.0498 34.8317 27.6829 35.1378 27.4244 35.5281C27.166 35.9183 27.0273 36.3756 27.0255 36.8436V37.0909C27.0255 37.8624 26.719 38.6024 26.1734 39.1479C25.6278 39.6935 24.8879 40 24.1164 40C23.3448 40 22.6049 39.6935 22.0593 39.1479C21.5138 38.6024 21.2073 37.8624 21.2073 37.0909V36.96C21.196 36.4786 21.0402 36.0116 20.76 35.6199C20.4799 35.2282 20.0883 34.9299 19.6364 34.7636C19.1977 34.57 18.711 34.5123 18.2391 34.5978C17.7673 34.6834 17.3319 34.9083 16.9891 35.2436L16.9018 35.3309C16.6316 35.6014 16.3108 35.816 15.9576 35.9624C15.6045 36.1088 15.2259 36.1841 14.8436 36.1841C14.4613 36.1841 14.0828 36.1088 13.7296 35.9624C13.3765 35.816 13.0556 35.6014 12.7855 35.3309C12.515 35.0607 12.3004 34.7399 12.154 34.3867C12.0076 34.0336 11.9323 33.655 11.9323 33.2727C11.9323 32.8904 12.0076 32.5119 12.154 32.1587C12.3004 31.8056 12.515 31.4847 12.7855 31.2145L12.8727 31.1273C13.2081 30.7845 13.433 30.3491 13.5186 29.8772C13.6041 29.4054 13.5463 28.9187 13.3527 28.48C13.1683 28.0498 12.8622 27.6829 12.4719 27.4244C12.0817 27.166 11.6244 27.0273 11.1564 27.0255H10.9091C10.1376 27.0255 9.39761 26.719 8.85205 26.1734C8.30649 25.6278 8 24.8879 8 24.1164C8 23.3448 8.30649 22.6049 8.85205 22.0593C9.39761 21.5138 10.1376 21.2073 10.9091 21.2073H11.04C11.5214 21.196 11.9884 21.0402 12.3801 20.76C12.7718 20.4799 13.0701 20.0883 13.2364 19.6364C13.43 19.1977 13.4877 18.711 13.4022 18.2391C13.3166 17.7673 13.0917 17.3319 12.7564 16.9891L12.6691 16.9018C12.3986 16.6316 12.184 16.3108 12.0376 15.9576C11.8912 15.6045 11.8159 15.2259 11.8159 14.8436C11.8159 14.4613 11.8912 14.0828 12.0376 13.7296C12.184 13.3765 12.3986 13.0556 12.6691 12.7855C12.9393 12.515 13.2601 12.3004 13.6133 12.154C13.9664 12.0076 14.345 11.9323 14.7273 11.9323C15.1096 11.9323 15.4881 12.0076 15.8413 12.154C16.1944 12.3004 16.5153 12.515 16.7855 12.7855L16.8727 12.8727C17.2155 13.2081 17.6509 13.433 18.1228 13.5186C18.5946 13.6041 19.0813 13.5463 19.52 13.3527H19.6364C20.0666 13.1683 20.4335 12.8622 20.6919 12.4719C20.9504 12.0817 21.089 11.6244 21.0909 11.1564V10.9091C21.0909 10.1376 21.3974 9.39761 21.943 8.85205C22.4885 8.30649 23.2285 8 24 8C24.7715 8 25.5115 8.30649 26.057 8.85205C26.6026 9.39761 26.9091 10.1376 26.9091 10.9091V11.04C26.911 11.5081 27.0496 11.9653 27.3081 12.3556C27.5665 12.7458 27.9334 13.052 28.3636 13.2364C28.8024 13.43 29.289 13.4877 29.7609 13.4022C30.2327 13.3166 30.6681 13.0917 31.0109 12.7564L31.0982 12.6691C31.3684 12.3986 31.6892 12.184 32.0424 12.0376C32.3955 11.8912 32.7741 11.8159 33.1564 11.8159C33.5387 11.8159 33.9172 11.8912 34.2704 12.0376C34.6235 12.184 34.9444 12.3986 35.2145 12.6691C35.485 12.9393 35.6996 13.2601 35.846 13.6133C35.9924 13.9664 36.0677 14.345 36.0677 14.7273C36.0677 15.1096 35.9924 15.4881 35.846 15.8413C35.6996 16.1944 35.485 16.5153 35.2145 16.7855L35.1273 16.8727C34.7919 17.2155 34.567 17.6509 34.4814 18.1228C34.3959 18.5946 34.4537 19.0813 34.6473 19.52V19.6364C34.8317 20.0666 35.1378 20.4335 35.5281 20.6919C35.9183 20.9504 36.3756 21.089 36.8436 21.0909H37.0909C37.8624 21.0909 38.6024 21.3974 39.1479 21.943C39.6935 22.4885 40 23.2285 40 24C40 24.7715 39.6935 25.5115 39.1479 26.057C38.6024 26.6026 37.8624 26.9091 37.0909 26.9091H36.96C36.4919 26.911 36.0347 27.0496 35.6444 27.3081C35.2542 27.5665 34.948 27.9334 34.7636 28.3636Z" stroke="#16171C" stroke-width="1.5" stroke-linecap="round" stroke-linejoin="round"/>
</svg>
