<svg width="48" height="48" viewBox="0 0 48 48" fill="none" xmlns="http://www.w3.org/2000/svg">
<path d="M8.75 11.6C8.75 10.026 10.026 8.75 11.6 8.75H19.6381C21.2121 8.75 22.4881 10.026 22.4881 11.6V19.6381C22.4881 21.2121 21.2121 22.4881 19.6381 22.4881H11.6C10.026 22.4881 8.75 21.2121 8.75 19.6381V11.6ZM25.5119 11.6C25.5119 10.026 26.7879 8.75 28.3619 8.75H36.4C37.974 8.75 39.25 10.026 39.25 11.6V19.6381C39.25 21.2121 37.974 22.4881 36.4 22.4881H28.3619C26.7879 22.4881 25.5119 21.2121 25.5119 19.6381V11.6ZM8.75 28.3619C8.75 26.7879 10.026 25.5119 11.6 25.5119H19.6381C21.2121 25.5119 22.4881 26.7879 22.4881 28.3619V36.4C22.4881 37.974 21.2121 39.25 19.6381 39.25H11.6C10.026 39.25 8.75 37.974 8.75 36.4V28.3619ZM25.5119 28.3619C25.5119 26.7879 26.7879 25.5119 28.3619 25.5119H36.4C37.974 25.5119 39.25 26.7879 39.25 28.3619V36.4C39.25 37.974 37.974 39.25 36.4 39.25H28.3619C26.7879 39.25 25.5119 37.974 25.5119 36.4V28.3619Z" stroke="#16171C" stroke-width="1.5"/>
</svg>
