<svg width="48" height="48" viewBox="0 0 48 48" fill="none" xmlns="http://www.w3.org/2000/svg">
<path d="M39.0875 12.3749C38.6188 11.9062 37.85 11.8999 37.3813 12.3749L22.9125 26.7999L17.6938 21.1312C17.2438 20.6437 16.4813 20.6124 15.9875 21.0624C15.5 21.5124 15.4688 22.2749 15.9188 22.7687L21.9875 29.3624C22.2125 29.6061 22.5188 29.7437 22.85 29.7499C22.8563 29.7499 22.8688 29.7499 22.875 29.7499C23.1938 29.7499 23.5 29.6249 23.725 29.3999L39.0813 14.0812C39.5563 13.6124 39.5563 12.8437 39.0875 12.3749Z" fill="#16171C"/>
<path d="M38.7938 22.7937C38.125 22.7937 37.5875 23.3313 37.5875 24C37.5875 31.4937 31.4937 37.5875 24 37.5875C16.5063 37.5875 10.4125 31.4937 10.4125 24C10.4125 16.5063 16.5063 10.4125 24 10.4125C24.6688 10.4125 25.2062 9.875 25.2062 9.20625C25.2062 8.5375 24.6688 8 24 8C15.175 8 8 15.175 8 24C8 32.825 15.175 40 24 40C32.825 40 40 32.825 40 24C40 23.3313 39.4625 22.7937 38.7938 22.7937Z" fill="#16171C"/>
</svg>
