<svg width="48" height="48" viewBox="0 0 48 48" fill="none" xmlns="http://www.w3.org/2000/svg">
<path d="M39.7625 17.4754C39.5875 17.2782 39.3313 17.1673 39.0625 17.1673H35.4063V13.9512C35.4063 13.4398 34.9875 13.027 34.4688 13.027H18.375V11.9242C18.375 11.4128 17.9563 11 17.4375 11H8.9375C8.41875 11 8 11.4128 8 11.9242V36.0758C8 36.2915 8.06875 36.5009 8.2125 36.6673C8.3875 36.8768 8.65625 37 8.9375 37H37.0438C37.5188 37 37.925 36.6427 37.975 36.1744L39.9938 18.19C40.025 17.9313 39.9375 17.6725 39.7625 17.4754ZM9.875 12.8483H16.5V13.9512C16.5 14.4626 16.9188 14.8754 17.4375 14.8754H33.525V17.1673H12.6875C12.2438 17.1673 11.8563 17.4754 11.7688 17.9066L9.875 26.9943V12.8483ZM36.2063 35.1578H10.0875L13.45 19.0218H38.0125L36.2063 35.1578Z" fill="#16171C"/>
</svg>
