<svg width="48" height="48" viewBox="0 0 48 48" fill="none" xmlns="http://www.w3.org/2000/svg">
<path d="M24.2698 9.82638L32.5426 9.82638C34.7895 9.82638 36.6279 11.6785 36.6279 13.9421L36.6279 34.0579C36.6279 36.3216 34.7895 38.1736 32.5426 38.1736H24.1166C23.6059 38.1736 23.2229 38.6109 23.2229 39.0997C23.2229 39.5884 23.6314 40 24.1166 40H32.5426C35.8109 40 38.4408 37.3505 38.4408 34.0579L38.4408 13.9421C38.4408 10.6495 35.8109 8 32.5426 8L24.2698 8C23.7591 8 23.3761 8.43731 23.3761 8.92605C23.3761 9.44052 23.7591 9.82638 24.2698 9.82638Z" fill="#16171C"/>
<path d="M9.25568 24.6434L15.0518 30.4826C15.4092 30.8427 15.971 30.8427 16.3284 30.4826C16.6859 30.1225 16.6859 29.5566 16.3284 29.1964L12.0899 24.9263L30.5505 24.9264C31.0612 24.9264 31.4697 24.5405 31.4697 24.026C31.4697 23.5116 31.0867 23.1 30.576 23.1L12.0899 23.1L16.3284 18.8299C16.6859 18.4698 16.6859 17.8781 16.3284 17.518C16.1497 17.3379 15.9199 17.2607 15.6901 17.2607C15.4603 17.2607 15.205 17.3636 15.0518 17.5437L9.28121 23.3829C8.92374 23.6916 8.89821 24.2833 9.25568 24.6434Z" fill="#16171C"/>
</svg>
