<svg width="48" height="48" viewBox="0 0 48 48" fill="none" xmlns="http://www.w3.org/2000/svg">
<path fill-rule="evenodd" clip-rule="evenodd" d="M33.1996 22.2915C33.1996 21.7023 32.7221 21.2247 32.133 21.2247C31.5439 21.2247 31.0663 21.7023 31.0663 22.2915L31.0664 22.3041L31.0583 22.3042V25.8586H31.0327C30.7168 29.6537 27.6107 32.6116 23.8051 32.7413H23.3741C19.5697 32.6095 16.4653 29.6525 16.1482 25.8586H16.1282V25.4575C16.128 25.4391 16.1267 25.4208 16.1254 25.4024C16.124 25.3824 16.1226 25.3623 16.1226 25.3423V25.3338H16.1282V22.4001C16.1318 22.3645 16.1336 22.3283 16.1336 22.2916C16.1336 21.7025 15.6561 21.2249 15.067 21.2249C14.4779 21.2249 14.0003 21.7025 14.0003 22.2916C14.0003 22.3355 14.003 22.3787 14.0081 22.4211V24.8686C14.0077 24.8881 14.006 24.9076 14.0042 24.9274C14.0022 24.9511 14 24.9754 14 25.0009C13.9941 29.9102 17.67 34.0436 22.546 34.6103V37.8532H18.5183V37.8673C18.5057 37.8669 18.4931 37.8666 18.4804 37.8666C17.8913 37.8666 17.4137 38.3442 17.4137 38.9334C17.4137 39.5225 17.8913 40.0001 18.4804 40.0001C18.4931 40.0001 18.5057 39.9999 18.5183 39.9995V39.9996H28.6771V39.9993C28.6915 39.9999 28.706 40.0001 28.7205 40.0001C29.3096 40.0001 29.7872 39.5225 29.7872 38.9334C29.7872 38.3442 29.3096 37.8666 28.7205 37.8666C28.706 37.8666 28.6915 37.8669 28.6771 37.8675V37.8532H24.658V34.6103C29.5235 34.0299 33.1859 29.9015 33.1826 25.0009H33.183H33.1958V22.3822C33.1983 22.3523 33.1996 22.322 33.1996 22.2915ZM29.352 23.2044C29.352 23.8487 29.352 24.5272 29.3179 25.1715C29.2916 25.7525 29.203 26.3291 29.0533 26.8911C28.7194 28.0708 28.0074 29.1082 27.0267 29.8439C25.0152 31.4312 22.1775 31.4312 20.166 29.8439C19.1828 29.1105 18.4699 28.0722 18.1385 26.8911C17.9882 26.3292 17.8996 25.7526 17.8744 25.1715C17.8373 24.5272 17.8407 23.8487 17.8407 23.2044V17.8109C17.8407 17.1708 17.8441 14.3418 17.8407 13.8638C17.8576 13.2793 17.9582 12.7002 18.1394 12.1442C18.8224 9.69449 21.0538 8 23.5968 8C26.1397 8 28.3711 9.69449 29.0542 12.1442C29.2146 12.7052 29.3147 13.2816 29.3528 13.8638C29.3912 14.5082 29.3528 17.1708 29.3528 17.8109V23.2044H29.352ZM27.218 24.2116C27.218 24.6212 27.2095 24.7577 27.1839 25.1674C27.1691 25.5394 27.1133 25.9086 27.0175 26.2683C26.8131 27.0235 26.3683 27.6916 25.7503 28.1714C24.484 29.1556 22.7116 29.1556 21.4453 28.1714C20.8249 27.693 20.3783 27.0246 20.1739 26.2683C20.0801 25.9081 20.0243 25.5392 20.0075 25.1674C19.9861 24.7577 19.9819 24.6212 19.9819 24.2116C19.9819 18.5364 19.9563 14.3291 19.9904 13.8768C20.0151 13.5047 20.0765 13.1359 20.1739 12.7759C20.3783 12.0196 20.8249 11.3512 21.4453 10.8728C22.7116 9.88853 24.484 9.88853 25.7503 10.8728C26.3683 11.3526 26.8131 12.0207 27.0175 12.7759C27.1259 13.1343 27.1945 13.5034 27.2223 13.8768C27.2521 14.3632 27.218 18.5193 27.218 24.2116Z" fill="#16171C"/>
</svg>
