<svg width="48" height="48" viewBox="0 0 48 48" fill="none" xmlns="http://www.w3.org/2000/svg">
<path d="M25 25.5C25 24.6371 24.3284 23.9375 23.5 23.9375C22.6716 23.9375 22 24.6371 22 25.5C22 26.3629 22.6716 27.0625 23.5 27.0625C24.3284 27.0625 25 26.3629 25 25.5Z" fill="#16171C"/>
<path d="M25 14.5625C25 13.6996 24.3284 13 23.5 13C22.6716 13 22 13.6996 22 14.5625C22 15.4254 22.6716 16.125 23.5 16.125C24.3284 16.125 25 15.4254 25 14.5625Z" fill="#16171C"/>
<path d="M25 36.4375C25 35.5746 24.3284 34.875 23.5 34.875C22.6716 34.875 22 35.5746 22 36.4375C22 37.3004 22.6716 38 23.5 38C24.3284 38 25 37.3004 25 36.4375Z" fill="#16171C"/>
</svg>
