<svg width="48" height="48" viewBox="0 0 48 48" fill="none" xmlns="http://www.w3.org/2000/svg">
<path d="M28.6922 8L28.0282 8.65269C26.4683 10.1859 26.2365 12.538 27.339 14.3176L20.617 18.7817L20.498 18.6647C17.9358 16.1463 13.7572 16.1463 11.195 18.6647L10.5309 19.3174L18.8817 27.5253L8 38.2208L9.32811 39.5262L20.2036 28.8368L28.5544 37.0447L29.2184 36.392C31.7807 33.8736 31.7807 29.7666 29.2184 27.2482L29.0994 27.1312L33.6413 20.5243C35.4518 21.6018 37.8449 21.3802 39.4048 19.847L40.0689 19.1943L28.6922 8ZM28.4917 34.3601L13.2561 19.3851C15.0791 18.2029 17.5662 18.3938 19.1699 19.9701L27.8966 28.5474C29.5004 30.1299 29.6946 32.5683 28.4917 34.3601ZM27.7525 25.8012L21.964 20.1117L28.5732 15.7215L32.2192 19.3051L27.7525 25.8012ZM34.0924 18.5354L29.35 13.8742C28.4855 13.0245 28.2975 11.7499 28.7987 10.7216L37.2999 19.0773C36.2537 19.5699 34.9631 19.3851 34.0924 18.5354Z" fill="#16171C"/>
</svg>
