<svg width="48" height="48" viewBox="0 0 48 48" fill="none" xmlns="http://www.w3.org/2000/svg">
<path d="M14.987 14.313C19.6972 10.0965 26.8015 9.91546 31.7199 13.8733L27.8945 14.0285C27.4001 14.0543 27.0097 14.4682 27.0357 14.9597C27.0618 15.4253 27.4521 15.8134 27.9205 15.8134H27.9466L33.8278 15.6064C34.2962 15.5806 34.6865 15.1925 34.6865 14.7269V14.6234L34.4784 8.85486C34.4523 8.36337 34.062 7.97535 33.5676 8.00122C33.0731 8.02709 32.6828 8.41511 32.7088 8.9066C32.7088 8.9066 32.7088 8.9066 32.7088 8.93247L32.8389 12.554C27.2439 8.02708 19.1507 8.2599 13.816 13.0714C9.83442 16.6411 8.1429 22.0993 9.41804 27.2988C9.52213 27.6868 9.86045 27.9714 10.2768 27.9714C10.3549 27.9714 10.4069 27.9714 10.485 27.9455C10.9534 27.8161 11.2397 27.3505 11.1356 26.8849C10.0166 22.2545 11.4999 17.4689 14.987 14.313Z" fill="#16171C"/>
<path d="M38.0696 20.7543C37.9655 20.2887 37.4711 19.9783 37.0026 20.1076C36.5342 20.237 36.2219 20.7026 36.3521 21.1682C38.0175 28.0233 33.7758 34.93 26.8796 36.5856C22.9241 37.5427 18.7864 36.5856 15.6376 33.9988L19.5151 33.6625C20.0095 33.6366 20.3738 33.1969 20.3218 32.7054C20.2958 32.2139 19.8534 31.8517 19.3589 31.9035H19.3329L13.4777 32.4208C12.9833 32.4726 12.6189 32.8864 12.671 33.3779L13.1914 39.1983C13.2435 39.6639 13.6078 40.0002 14.0762 40.0002C14.1022 40.0002 14.1283 40.0002 14.1543 40.0002C14.6487 39.9484 15.0131 39.5345 14.961 39.0431L14.6488 35.4991C17.0429 37.4392 20.0095 38.5516 23.1063 38.7068C23.3665 38.7326 23.6007 38.7326 23.8609 38.7326C31.9541 38.7326 38.486 32.188 38.486 24.1689C38.486 23.0307 38.3298 21.8925 38.0696 20.7543Z" fill="#16171C"/>
</svg>
