<svg width="48" height="48" viewBox="0 0 48 48" fill="none" xmlns="http://www.w3.org/2000/svg">
<path d="M9.75 25.0344C9.75 23.4334 10.999 22.1785 12.4875 22.1785H13.5995C15.0879 22.1785 16.337 23.4334 16.337 25.0344V34.394C16.337 35.9951 15.0879 37.2499 13.5995 37.2499H12.4875C10.999 37.2499 9.75 35.9951 9.75 34.394V25.0344ZM20.5326 19.5107C20.5326 17.9096 21.7816 16.6548 23.2701 16.6548H24.3821C25.8705 16.6548 27.1196 17.9096 27.1196 19.5107V34.3941C27.1196 35.9952 25.8706 37.25 24.3821 37.25H23.2701C21.7817 37.25 20.5326 35.9952 20.5326 34.3941V19.5107ZM32.663 12.6059C32.663 11.0048 33.9121 9.75 35.4005 9.75H36.5125C38.001 9.75 39.25 11.0048 39.25 12.6059V34.3941C39.25 35.9952 38.001 37.25 36.5125 37.25H35.4005C33.9121 37.25 32.663 35.9952 32.663 34.3941V12.6059Z" stroke="#16171C" stroke-width="1.5"/>
</svg>
