<svg width="48" height="48" viewBox="0 0 48 48" fill="none" xmlns="http://www.w3.org/2000/svg">
<path d="M29.8765 24.4075C29.8765 25.6675 30.9075 26.689 32.1793 26.689C33.4511 26.689 34.4821 25.6675 34.4821 24.4075C34.4821 23.1474 33.4511 22.126 32.1793 22.126C30.9075 22.126 29.8765 23.1474 29.8765 24.4075Z" fill="#16171C"/>
<path fill-rule="evenodd" clip-rule="evenodd" d="M35.6336 13H12.6056C10.062 13 8 15.0429 8 17.563V31.252C8 33.7721 10.062 35.815 12.6056 35.815H35.6336C38.1772 35.815 40.2392 33.7721 40.2392 31.252V17.563C40.2392 15.0429 38.1772 13 35.6336 13ZM12.606 15.2813H35.634C36.9058 15.2813 37.9368 16.3027 37.9368 17.5628V31.2517C37.9368 32.5118 36.9058 33.5332 35.634 33.5332H12.606C11.3342 33.5332 10.3032 32.5118 10.3032 31.2517V17.5628C10.3032 16.3027 11.3342 15.2813 12.606 15.2813Z" fill="#16171C"/>
</svg>
