<svg width="48" height="48" viewBox="0 0 48 48" fill="none" xmlns="http://www.w3.org/2000/svg">
<path d="M39.43 12.1261C39.0175 11.5687 38.4363 11.2258 37.7926 11.1614L15.2622 9.01064C14.6247 8.94634 13.9998 9.17499 13.5123 9.65374C13.0248 10.1253 12.7248 10.7827 12.6686 11.5116L12.2123 16.3777H10.3999C9.08121 16.3777 8 17.6067 8 19.1216V35.249C8 36.7638 9.08121 38 10.4062 38H33.0177C34.3427 38 35.4239 36.7638 35.4239 35.249V32.6337L36.2239 32.7123C36.2926 32.7195 36.3614 32.7195 36.4239 32.7195C37.6613 32.7195 38.7113 31.6333 38.8175 30.1971L39.9925 14.1268C40.0425 13.398 39.8425 12.6906 39.43 12.1261ZM10.4062 17.8068H33.0177C33.6552 17.8068 34.1739 18.3999 34.1739 19.1287V20.6007H9.24995V19.1287C9.24995 18.3999 9.76868 17.8068 10.4062 17.8068ZM9.24995 22.0226H34.1677V24.988H9.24995V22.0226ZM33.0177 36.5709H10.4062C9.76868 36.5709 9.24995 35.9778 9.24995 35.249V26.4171H34.1677V35.249C34.1677 35.9778 33.649 36.5709 33.0177 36.5709ZM38.7425 14.0125L37.5738 30.0828C37.5238 30.8045 36.9613 31.3475 36.3301 31.2904L35.4239 31.2046V19.1287C35.4239 17.6138 34.3427 16.3777 33.0177 16.3777H13.4685L13.906 11.6616C13.906 11.6545 13.906 11.6473 13.906 11.6473C13.956 10.9256 14.5185 10.3826 15.1497 10.4397L37.6863 12.5905C37.9925 12.6191 38.2738 12.7835 38.4738 13.055C38.6738 13.3265 38.7675 13.6624 38.7425 14.0125Z" fill="#16171C"/>
</svg>
