<svg width="48" height="48" viewBox="0 0 48 48" fill="none" xmlns="http://www.w3.org/2000/svg">
<path fill-rule="evenodd" clip-rule="evenodd" d="M24 8C32.8366 8 40 15.1634 40 24C40 32.8366 32.8366 40 24 40C15.1634 40 8 32.8366 8 24C8 15.1634 15.1634 8 24 8ZM23.9998 9.86409C31.8067 9.86498 38.1348 16.1943 38.1342 24.0012C38.1336 31.8081 31.8046 38.1364 23.9977 38.1361C16.1908 38.1358 9.86223 31.807 9.86223 24.0001C9.86234 20.2507 11.3519 16.655 14.0033 14.004C16.6546 11.3529 20.2505 9.86378 23.9998 9.86409ZM18.9394 17.0599C18.4448 17.054 17.9686 17.2467 17.6173 17.5948C17.2659 17.9429 17.0689 18.4173 17.0702 18.9119C17.0702 19.9442 17.907 20.7811 18.9394 20.7811C19.9717 20.7811 20.8086 19.9442 20.8086 18.9119C20.8099 18.4173 20.6128 17.9429 20.2615 17.5948C19.9102 17.2467 19.4339 17.054 18.9394 17.0599ZM34.6631 26.7565C33.8111 31.3605 29.3675 35.2045 23.9983 35.2045C18.6719 35.2045 14.2543 31.4165 13.3523 26.8645C13.1695 25.7285 14.0999 25.4605 14.9763 25.6725C17.9081 26.5202 20.9486 26.9326 24.0003 26.8965C27.0451 26.9318 30.0787 26.5207 33.0043 25.6765C33.8563 25.4605 34.7687 25.7045 34.6631 26.7565ZM31.771 27.3964C31.6878 27.4284 31.6034 27.4524 31.5182 27.4804C31.5094 27.4844 31.791 27.3924 31.7826 27.3964C29.2527 28.0929 26.6376 28.4309 24.0138 28.4004C20.8826 28.4004 18.0822 28.0524 16.155 27.3604C14.7578 26.9444 15.0258 28.5884 16.0078 29.0924C18.52 30.2361 21.2533 30.8124 24.0134 30.7804C27.2966 30.7804 30.2222 30.0164 32.1546 29.0284C33.069 28.4404 33.2498 26.8644 31.771 27.3964ZM29.0724 17.0599C28.5778 17.054 28.1015 17.2467 27.7501 17.5947C27.3987 17.9428 27.2016 18.4173 27.2028 18.9119C27.1929 19.5863 27.547 20.2137 28.1295 20.5538C28.7119 20.8939 29.4324 20.8939 30.0149 20.5538C30.5973 20.2137 30.9514 19.5863 30.9416 18.9119C30.9428 18.4173 30.7457 17.943 30.3944 17.5949C30.0431 17.2468 29.5669 17.0541 29.0724 17.0599Z" fill="#16171C"/>
</svg>
